<mxfile host="app.diagrams.net" modified="2022-09-04T10:32:17.860Z" agent="5.0 (Windows NT 10.0; Win64; x64) AppleWebKit/537.36 (KHTML, like Gecko) Chrome/104.0.0.0 Safari/537.36" etag="DAK_BGPwXXkHDiFv33Tz" version="20.2.7" type="github">
  <diagram id="ogjfOnVmUnLx3IYXHrbg" name="Страница 1">
    <mxGraphModel dx="1038" dy="1716" grid="1" gridSize="10" guides="1" tooltips="1" connect="1" arrows="1" fold="1" page="1" pageScale="1" pageWidth="827" pageHeight="1169" math="0" shadow="0">
      <root>
        <mxCell id="0" />
        <mxCell id="1" parent="0" />
        <mxCell id="rGs1d33nnRzQPSpDqq4Y-1" value="&lt;font style=&quot;font-size: 20px;&quot;&gt;User&lt;/font&gt;" style="rounded=1;whiteSpace=wrap;html=1;" vertex="1" parent="1">
          <mxGeometry x="310" y="-210" width="177.5" height="40" as="geometry" />
        </mxCell>
        <mxCell id="rGs1d33nnRzQPSpDqq4Y-2" value="&lt;font style=&quot;font-size: 12px;&quot;&gt;_id&lt;/font&gt;" style="rounded=1;whiteSpace=wrap;html=1;" vertex="1" parent="1">
          <mxGeometry x="338.75" y="-150" width="120" height="40" as="geometry" />
        </mxCell>
        <mxCell id="rGs1d33nnRzQPSpDqq4Y-3" value="&lt;font style=&quot;font-size: 12px;&quot;&gt;passwordHash&lt;/font&gt;" style="rounded=1;whiteSpace=wrap;html=1;" vertex="1" parent="1">
          <mxGeometry x="338.75" y="-90" width="120" height="40" as="geometry" />
        </mxCell>
        <mxCell id="rGs1d33nnRzQPSpDqq4Y-4" value="&lt;font style=&quot;font-size: 12px;&quot;&gt;email&lt;/font&gt;" style="rounded=1;whiteSpace=wrap;html=1;" vertex="1" parent="1">
          <mxGeometry x="338.75" y="-30" width="120" height="40" as="geometry" />
        </mxCell>
        <mxCell id="rGs1d33nnRzQPSpDqq4Y-5" value="&lt;font style=&quot;font-size: 12px;&quot;&gt;name&lt;/font&gt;" style="rounded=1;whiteSpace=wrap;html=1;" vertex="1" parent="1">
          <mxGeometry x="338.75" y="30" width="120" height="40" as="geometry" />
        </mxCell>
        <mxCell id="rGs1d33nnRzQPSpDqq4Y-6" value="&lt;font style=&quot;font-size: 12px;&quot;&gt;role&lt;/font&gt;" style="rounded=1;whiteSpace=wrap;html=1;" vertex="1" parent="1">
          <mxGeometry x="338.75" y="90" width="120" height="40" as="geometry" />
        </mxCell>
        <mxCell id="rGs1d33nnRzQPSpDqq4Y-7" value="&lt;font style=&quot;font-size: 12px;&quot;&gt;last_visit&lt;/font&gt;" style="rounded=1;whiteSpace=wrap;html=1;" vertex="1" parent="1">
          <mxGeometry x="338.75" y="150" width="120" height="40" as="geometry" />
        </mxCell>
        <mxCell id="rGs1d33nnRzQPSpDqq4Y-8" value="&lt;font style=&quot;font-size: 20px;&quot;&gt;Album&lt;/font&gt;" style="rounded=1;whiteSpace=wrap;html=1;" vertex="1" parent="1">
          <mxGeometry x="560" y="150" width="177.5" height="40" as="geometry" />
        </mxCell>
        <mxCell id="rGs1d33nnRzQPSpDqq4Y-9" value="&lt;font style=&quot;font-size: 12px;&quot;&gt;_id&lt;/font&gt;" style="rounded=1;whiteSpace=wrap;html=1;" vertex="1" parent="1">
          <mxGeometry x="588.75" y="210" width="120" height="40" as="geometry" />
        </mxCell>
        <mxCell id="rGs1d33nnRzQPSpDqq4Y-10" value="&lt;font style=&quot;font-size: 12px;&quot;&gt;name&lt;/font&gt;" style="rounded=1;whiteSpace=wrap;html=1;" vertex="1" parent="1">
          <mxGeometry x="588.75" y="270" width="120" height="40" as="geometry" />
        </mxCell>
        <mxCell id="rGs1d33nnRzQPSpDqq4Y-11" value="&lt;font style=&quot;font-size: 12px;&quot;&gt;creator&lt;/font&gt;" style="rounded=1;whiteSpace=wrap;html=1;" vertex="1" parent="1">
          <mxGeometry x="588.75" y="330" width="120" height="40" as="geometry" />
        </mxCell>
        <mxCell id="rGs1d33nnRzQPSpDqq4Y-12" value="count" style="rounded=1;whiteSpace=wrap;html=1;" vertex="1" parent="1">
          <mxGeometry x="588.75" y="390" width="120" height="40" as="geometry" />
        </mxCell>
        <mxCell id="rGs1d33nnRzQPSpDqq4Y-13" value="&lt;font style=&quot;font-size: 12px;&quot;&gt;visibility&lt;/font&gt;" style="rounded=1;whiteSpace=wrap;html=1;" vertex="1" parent="1">
          <mxGeometry x="588.75" y="450" width="120" height="40" as="geometry" />
        </mxCell>
        <mxCell id="rGs1d33nnRzQPSpDqq4Y-15" value="&lt;font style=&quot;font-size: 20px;&quot;&gt;Photo&lt;/font&gt;" style="rounded=1;whiteSpace=wrap;html=1;" vertex="1" parent="1">
          <mxGeometry x="60" y="150" width="177.5" height="40" as="geometry" />
        </mxCell>
        <mxCell id="rGs1d33nnRzQPSpDqq4Y-16" value="&lt;font style=&quot;font-size: 12px;&quot;&gt;_id&lt;/font&gt;" style="rounded=1;whiteSpace=wrap;html=1;" vertex="1" parent="1">
          <mxGeometry x="88.75" y="210" width="120" height="40" as="geometry" />
        </mxCell>
        <mxCell id="rGs1d33nnRzQPSpDqq4Y-17" value="&lt;font style=&quot;font-size: 12px;&quot;&gt;uploader&lt;/font&gt;" style="rounded=1;whiteSpace=wrap;html=1;" vertex="1" parent="1">
          <mxGeometry x="88.75" y="270" width="120" height="40" as="geometry" />
        </mxCell>
        <mxCell id="rGs1d33nnRzQPSpDqq4Y-18" value="&lt;font style=&quot;font-size: 12px;&quot;&gt;album&lt;/font&gt;" style="rounded=1;whiteSpace=wrap;html=1;" vertex="1" parent="1">
          <mxGeometry x="88.75" y="330" width="120" height="40" as="geometry" />
        </mxCell>
        <mxCell id="rGs1d33nnRzQPSpDqq4Y-19" value="name" style="rounded=1;whiteSpace=wrap;html=1;" vertex="1" parent="1">
          <mxGeometry x="88.75" y="390" width="120" height="40" as="geometry" />
        </mxCell>
        <mxCell id="rGs1d33nnRzQPSpDqq4Y-20" value="&lt;font style=&quot;font-size: 12px;&quot;&gt;visibility&lt;/font&gt;" style="rounded=1;whiteSpace=wrap;html=1;" vertex="1" parent="1">
          <mxGeometry x="88.75" y="450" width="120" height="40" as="geometry" />
        </mxCell>
        <mxCell id="rGs1d33nnRzQPSpDqq4Y-21" value="" style="endArrow=none;html=1;rounded=0;fontSize=12;entryX=0;entryY=0.5;entryDx=0;entryDy=0;exitX=1;exitY=0.5;exitDx=0;exitDy=0;fillColor=#f8cecc;strokeColor=#b85450;" edge="1" parent="1" source="rGs1d33nnRzQPSpDqq4Y-17" target="rGs1d33nnRzQPSpDqq4Y-2">
          <mxGeometry width="50" height="50" relative="1" as="geometry">
            <mxPoint x="300" y="300" as="sourcePoint" />
            <mxPoint x="440" y="-70" as="targetPoint" />
            <Array as="points">
              <mxPoint x="300" y="290" />
              <mxPoint x="300" y="-130" />
            </Array>
          </mxGeometry>
        </mxCell>
        <mxCell id="rGs1d33nnRzQPSpDqq4Y-22" value="" style="endArrow=none;html=1;rounded=0;fontSize=12;entryX=0;entryY=0.5;entryDx=0;entryDy=0;fillColor=#f8cecc;strokeColor=#b85450;" edge="1" parent="1" target="rGs1d33nnRzQPSpDqq4Y-9">
          <mxGeometry width="50" height="50" relative="1" as="geometry">
            <mxPoint x="210" y="350" as="sourcePoint" />
            <mxPoint x="440" y="230" as="targetPoint" />
            <Array as="points">
              <mxPoint x="240" y="350" />
              <mxPoint x="410" y="350" />
              <mxPoint x="410" y="230" />
            </Array>
          </mxGeometry>
        </mxCell>
        <mxCell id="rGs1d33nnRzQPSpDqq4Y-23" value="" style="endArrow=none;html=1;rounded=0;fontSize=12;entryX=0;entryY=0.5;entryDx=0;entryDy=0;exitX=1;exitY=0.5;exitDx=0;exitDy=0;fillColor=#dae8fc;strokeColor=#6c8ebf;" edge="1" parent="1" source="rGs1d33nnRzQPSpDqq4Y-2" target="rGs1d33nnRzQPSpDqq4Y-11">
          <mxGeometry width="50" height="50" relative="1" as="geometry">
            <mxPoint x="510" y="350" as="sourcePoint" />
            <mxPoint x="440" y="230" as="targetPoint" />
            <Array as="points">
              <mxPoint x="490" y="-130" />
              <mxPoint x="490" y="350" />
            </Array>
          </mxGeometry>
        </mxCell>
      </root>
    </mxGraphModel>
  </diagram>
</mxfile>
